#!OML:ASF E:\motion texture\Top Level 1\Subject 1\Session 1\male.ASF
:FULLY-SPECIFIED
:DEGREES
709
root -17.8948 18.2687 3.20976 483.137 -83.3033 -481.085
lowerback -2.62544 -0.285458 6.22333
upperback -8.40997 -0.465425 3.50698
thorax -7.36613 -0.672471 0.251827
lowerneck -6.26856 -3.30786 -9.1308
upperneck -10.6466 -3.7559 8.85579
head -1.7769 -1.85856 4.16428
rclavicle 1.23246e-014 -2.46493e-014
rhumerus 67.0367 -0.719766 -52.8192
rradius 82.6537
rwrist -23.5611
rhand -9.26799 -40.4462
rfingers 7.12502
rthumb 16.6885 -69.7488
lclavicle 1.23246e-014 -2.46493e-014
lhumerus 67.9368 -0.916658 51.1936
lradius 76.6272
lwrist 2.10035
lhand -21.4565 44.504
lfingers 7.12502
lthumb 4.93354 74.4265
rfemur -8.4102 3.82866 27.2863
rtibia 18.4951
rfoot -7.80361 -11.6084
rtoes 14.9546
lfemur -10.1695 2.01443 -10.9374
ltibia 51.3961
lfoot 4.65349 -0.0076588
ltoes -16.5898
710
root -18.014 18.2622 3.18902 483.329 -83.0621 -481.376
lowerback -2.61619 -0.222417 6.43133
upperback -8.27286 -0.377843 3.52428
thorax -7.22243 -0.634692 0.147118
lowerneck -6.50601 -3.33159 -9.04512
upperneck -9.98358 -3.78515 8.72792
head -1.54589 -1.86163 4.09368
rclavicle -1.63003e-014 2.38542e-014
rhumerus 65.2443 0.541885 -52.9283
rradius 83.1535
rwrist -24.5102
rhand -8.72057 -40.7112
rfingers 7.12502
rthumb 17.2154 -69.9686
lclavicle -1.63003e-014 2.38542e-014
lhumerus 65.989 -2.25765 50.8347
lradius 77.5359
lwrist 1.04607
lhand -21.9159 44.6212
lfingers 7.12502
lthumb 4.48995 74.5536
rfemur -7.75849 3.97073 27.648
rtibia 18.3171
rfoot -8.05616 -11.6307
rtoes 14.881
lfemur -11.1208 2.2728 -10.6371
ltibia 52.035
lfoot 4.28743 0.330083
ltoes -16.3285
711
root -18.1321 18.2553 3.16892 483.613 -82.8294 -481.746
lowerback -2.60696 -0.159405 6.62718
upperback -8.13466 -0.291071 3.53689
thorax -7.07706 -0.596092 0.0444803
lowerneck -6.65974 -3.34827 -8.97899
upperneck -9.24744 -3.84672 8.31694
head -1.46592 -1.86518 4.33874
rclavicle -9.93923e-016 3.65764e-014
rhumerus 63.4095 1.84842 -53.0854
rradius 83.6126
rwrist -25.4517
rhand -8.16683 -40.9767
rfingers 7.12502
rthumb 17.7483 -70.1868
lclavicle -9.93923e-016 3.65764e-014
lhumerus 64.0024 -3.67354 50.5168
lradius 78.4121
lwrist -0.00395485
lhand -22.3707 44.745
lfingers 7.12502
lthumb 4.05078 74.6862
rfemur -7.11986 4.12128 27.993
rtibia 18.1342
rfoot -8.30879 -11.6631
rtoes 14.7731
lfemur -12.0744 2.52578 -10.3568
ltibia 52.5613
lfoot 3.87059 0.680692
ltoes -16.0779
712
root -18.2496 18.2481 3.1495 483.973 -82.6066 -482.183
lowerback -2.59573 -0.0971388 6.8098
upperback -7.99631 -0.20579 3.54489
thorax -6.93224 -0.557034 -0.0553179
lowerneck -6.90545 -3.36757 -8.89645
upperneck -8.62445 -3.86599 8.20649
head -1.21646 -1.86742 4.26295
rclavicle -1.74931e-014 5.08889e-014
rhumerus 61.5316 3.19796 -53.2961
rradius 84.027
rwrist -26.3796
rhand -7.60815 -41.236
rfingers 7.12502
rthumb 18.2858 -70.3965
lclavicle -1.74931e-014 5.08889e-014
lhumerus 61.9764 -5.16412 50.2477
lradius 79.2469
lwrist -1.04614
lhand -22.8298 44.8772
lfingers 7.12502
lthumb 3.6075 74.8264
rfemur -6.49326 4.27738 28.3198
rtibia 17.9474
rfoot -8.5599 -11.7053
rtoes 14.6192
lfemur -13.0223 2.76962 -10.0975
ltibia 52.9653
lfoot 3.40852 1.04274
ltoes -15.8279
713
root -18.3664 18.2406 3.13072 484.389 -82.3939 -482.663
lowerback -2.57885 -0.0363697 6.97966
upperback -7.86022 -0.122499 3.54801
thorax -6.79281 -0.51803 -0.152714
lowerneck -7.15493 -3.38522 -8.80668
upperneck -8.00955 -3.88418 8.09126
head -0.970984 -1.86955 4.18602
rclavicle 2.40529e-014 -5.56597e-014
rhumerus 59.6083 4.58632 -53.5654
rradius 84.3913
rwrist -27.2868
rhand -7.04583 -41.4816
rfingers 7.12502
rthumb 18.8267 -70.5905
lclavicle 2.40529e-014 -5.56597e-014
lhumerus 59.9094 -6.72759 50.0361
lradius 80.0347
lwrist -2.06208
lhand -23.3007 44.9938
lfingers 7.12502
lthumb 3.1527 74.9502
rfemur -5.88147 4.44061 28.6295
rtibia 17.7588
rfoot -8.80733 -11.7675
rtoes 14.4326
lfemur -13.9613 3.00183 -9.85708
ltibia 53.2403
lfoot 2.90853 1.41409
ltoes -15.5765
714
root -18.4827 18.2327 3.1126 484.864 -82.1911 -483.188
lowerback -2.56623 0.0233114 7.13651
upperback -7.72127 -0.0417432 3.54631
thorax -6.64751 -0.478942 -0.247778
lowerneck -7.41505 -3.39984 -8.72135
upperneck -7.40217 -3.89787 7.98636
head -0.727589 -1.8696 4.11561
rclavicle -5.96354e-016 2.06736e-014
rhumerus 57.6452 6.00468 -53.9007
rradius 84.7006
rwrist -28.168
rhand -6.47844 -41.7065
rfingers 7.12502
rthumb 19.3724 -70.7615
lclavicle -5.96354e-016 2.06736e-014
lhumerus 57.8065 -8.35628 49.8895
lradius 80.7681
lwrist -3.06586
lhand -23.7741 45.1036
lfingers 7.12502
lthumb 2.69555 75.0663
rfemur -5.2862 4.61019 28.921
rtibia 17.5707
rfoot -9.04929 -11.8484
rtoes 14.2187
lfemur -14.888 3.22115 -9.63538
ltibia 53.3825
lfoot 2.37436 1.79249
ltoes -15.3222
715
root -18.5986 18.2244 3.09515 485.379 -81.9966 -483.742
lowerback -2.55036 0.0825582 7.27693
upperback -7.58398 0.0383411 3.54473
thorax -6.50547 -0.438934 -0.333249
lowerneck -7.68919 -3.41283 -8.64771
upperneck -6.79473 -3.90821 7.89181
head -0.482622 -1.8678 4.05295
rclavicle 3.18055e-015 1.19271e-014
rhumerus 55.636 7.45029 -54.2979
rradius 84.9503
rwrist -29.0243
rhand -5.91074 -41.9088
rfingers 7.12502
rthumb 19.9182 -70.9081
lclavicle 3.18055e-015 1.19271e-014
lhumerus 55.6602 -10.0491 49.8275
lradius 81.4399
lwrist -4.05682
lhand -24.2477 45.1965
lfingers 7.12502
lthumb 2.23814 75.1645
rfemur -4.70799 4.78352 29.1967
rtibia 17.3851
rfoot -9.28778 -11.9407
rtoes 13.9749
lfemur -15.7975 3.42606 -9.42864
ltibia 53.3863
lfoot 1.81248 2.17678
ltoes -15.0688
716
root -18.7142 18.2156 3.07838 485.928 -81.8104 -484.315
lowerback -2.54024 0.140359 7.41225
upperback -7.4423 0.115289 3.53528
thorax -6.35531 -0.399629 -0.42397
lowerneck -7.9707 -3.4239 -8.5689
upperneck -6.20184 -3.91659 7.80131
head -0.242098 -1.86543 3.99265
rclavicle -1.0138e-014 -1.11319e-014
rhumerus 53.5834 8.90926 -54.7798
rradius 85.1427
rwrist -29.8528
rhand -5.33802 -42.0967
rfingers 7.12502
rthumb 20.4686 -71.0378
lclavicle -1.0138e-014 -1.11319e-014
lhumerus 53.4772 -11.7947 49.8449
lradius 82.0443
lwrist -5.03359
lhand -24.7193 45.2704
lfingers 7.12502
lthumb 1.78264 75.2427
rfemur -4.14898 4.95847 29.4562
rtibia 17.2048
rfoot -9.52477 -12.0411
rtoes 13.706
lfemur -16.6864 3.61538 -9.23522
ltibia 53.2487
lfoot 1.22741 2.56608
ltoes -14.8144
717
root -18.8298 18.2064 3.06229 486.505 -81.6326 -484.901
lowerback -2.53102 0.197645 7.53699
upperback -7.3 0.191002 3.52225
thorax -6.20376 -0.359974 -0.512292
lowerneck -8.26267 -3.43447 -8.49003
upperneck -5.61692 -3.92434 7.71301
head -0.00286669 -1.86287 3.93481
rclavicle -7.35503e-015 3.97569e-014
rhumerus 51.4838 10.3755 -55.3428
rradius 85.2689
rwrist -30.6516
rhand -4.76517 -42.2652
rfingers 7.12502
rthumb 21.019 -71.1462
lclavicle -7.35503e-015 3.97569e-014
lhumerus 51.2502 -13.588 49.9607
lradius 82.5728
lwrist -5.9979
lhand -25.1762 45.3279
lfingers 7.12502
lthumb 1.34143 75.3034
rfemur -3.60954 5.13193 29.6991
rtibia 17.0323
rfoot -9.76097 -12.1493
rtoes 13.4107
lfemur -17.5509 3.78834 -9.05397
ltibia 52.9676
lfoot 0.624212 2.95999
ltoes -14.5591
718
root -18.9453 18.1967 3.04689 487.102 -81.4628 -485.493
lowerback -2.5226 0.254495 7.65167
upperback -7.15696 0.26564 3.50648
thorax -6.05078 -0.319921 -0.597614
lowerneck -8.56748 -3.44458 -8.41626
upperneck -5.03986 -3.9309 7.6317
head 0.236021 -1.85972 3.88209
rclavicle -4.57205e-015 -3.61788e-014
rhumerus 49.3357 11.8391 -55.9895
rradius 85.3239
rwrist -31.4187
rhand -4.19034 -42.4113
rfingers 7.12502
rthumb 21.5712 -71.23
lclavicle -4.57205e-015 -3.61788e-014
lhumerus 48.9751 -15.4194 50.1876
lradius 83.0179
lwrist -6.94915
lhand -25.6261 45.3575
lfingers 7.12502
lthumb 0.906826 75.3353
rfemur -3.09037 5.30287 29.9257
rtibia 16.869
rfoot -9.9973 -12.2636
rtoes 13.0933
lfemur -18.3879 3.94479 -8.88249
ltibia 52.542
lfoot 0.0105006 3.35675
ltoes -14.3058
719
root -19.0612 18.1865 3.03224 487.727 -81.2993 -486.099
lowerback -2.51601 0.31186 7.75748
upperback -7.01279 0.340369 3.48806
thorax -5.89531 -0.278952 -0.680556
lowerneck -8.8837 -3.45417 -8.34423
upperneck -4.47367 -3.93655 7.55347
head 0.473457 -1.85618 3.8324
rclavicle 1.5704e-014 -4.85035e-014
rhumerus 47.1353 13.2888 -56.725
rradius 85.3093
rwrist -32.1529
rhand -3.61375 -42.5453
rfingers 7.12502
rthumb 22.1248 -71.2994
lclavicle 1.5704e-014 -4.85035e-014
lhumerus 46.6466 -17.2774 50.5379
lradius 83.3726
lwrist -7.89041
lhand -26.0424 45.3637
lfingers 7.12502
lthumb 0.504822 75.3429
rfemur -2.59116 5.47028 30.1356
rtibia 16.715
rfoot -10.2326 -12.3797
rtoes 12.7486
lfemur -19.1936 4.08566 -8.71918
ltibia 51.9704
lfoot -0.607457 3.75474
ltoes -14.0584
720
root -19.1773 18.1758 3.01826 488.358 -81.1453 -486.696
lowerback -2.50975 0.36795 7.85229
upperback -6.86838 0.413039 3.46751
thorax -5.73934 -0.238106 -0.759285
lowerneck -9.20815 -3.46339 -8.26675
upperneck -3.92177 -3.9422 7.46922
head 0.707625 -1.85295 3.78099
rclavicle -7.45443e-015 1.35174e-014
rhumerus 44.8817 14.7139 -57.5521
rradius 85.2202
rwrist -32.8591
rhand -3.03831 -42.6482
rfingers 7.12502
rthumb 22.6772 -71.3358
lclavicle -7.45443e-015 1.35174e-014
lhumerus 44.2574 -19.1474 51.0259
lradius 83.6286
lwrist -8.8259
lhand -26.4329 45.3471
lfingers 7.12502
lthumb 0.127615 75.3268
rfemur -2.11228 5.63178 30.3282
rtibia 16.5712
rfoot -10.4678 -12.4975
rtoes 12.3844
lfemur -19.9671 4.208 -8.56345
ltibia 51.2555
lfoot -1.22139 4.14629
ltoes -13.8339
721
root -19.2938 18.1645 3.00498 488.998 -80.9996 -487.286
lowerback -2.50437 0.42331 7.93645
upperback -6.72405 0.48435 3.44539
thorax -5.5829 -0.197104 -0.833434
lowerneck -9.54312 -3.47155 -8.19
upperneck -3.38369 -3.9462 7.38674
head 0.939555 -1.84903 3.73179
rclavicle 9.44227e-015 -5.96354e-015
rhumerus 42.5716 16.1018 -58.4762
rradius 85.05
rwrist -33.5354
rhand -2.46761 -42.7279
rfingers 7.12502
rthumb 23.2248 -71.3475
lclavicle 9.44227e-015 -5.96354e-015
lhumerus 41.7999 -21.0128 51.6631
lradius 83.7813
lwrist -9.75439
lhand -26.8086 45.2904
lfingers 7.12502
lthumb -0.235243 75.27
rfemur -1.65612 5.78813 30.5039
rtibia 16.4398
rfoot -10.7026 -12.6152
rtoes 11.9968
lfemur -20.7086 4.31374 -8.41338
ltibia 50.402
lfoot -1.82227 4.52492
ltoes -13.6331
722
root -19.411 18.1528 2.99244 489.635 -80.864 -487.858
lowerback -2.50007 0.477015 8.01067
upperback -6.57886 0.553063 3.42114
thorax -5.425 -0.156569 -0.903983
lowerneck -9.88593 -3.47745 -8.11716
upperneck -2.86404 -3.94679 7.31181
head 1.16759 -1.84349 3.68748
rclavicle -1.36167e-014 2.90226e-014
rhumerus 40.2033 17.4383 -59.5023
rradius 84.7974
rwrist -34.1828
rhand -1.90441 -42.7888
rfingers 7.12502
rthumb 23.7651 -71.3392
lclavicle -1.36167e-014 2.90226e-014
lhumerus 39.2658 -22.8555 52.461
lradius 83.8237
lwrist -10.6835
lhand -27.1552 45.1949
lfingers 7.12502
lthumb -0.569974 75.1739
rfemur -1.21943 5.93791 30.662
rtibia 16.3194
rfoot -10.9371 -12.7328
rtoes 11.5911
lfemur -21.4148 4.40019 -8.26891
ltibia 49.4142
lfoot -2.40414 4.88656
ltoes -13.4716
723
root -19.5289 18.1405 2.98061 490.26 -80.7401 -488.405
lowerback -2.49582 0.528586 8.07392
upperback -6.43297 0.618711 3.39491
thorax -5.26647 -0.116734 -0.970181
lowerneck -10.2404 -3.48318 -8.04053
upperneck -2.35733 -3.94723 7.23411
head 1.39412 -1.83804 3.64255
rclavicle 1.64991e-014 -2.18663e-014
rhumerus 37.776 18.7079 -60.6295
rradius 84.4634
rwrist -34.8026
rhand -1.34834 -42.8334
rfingers 7.12502
rthumb 24.2983 -71.3134
lclavicle 1.64991e-014 -2.18663e-014
lhumerus 36.6481 -24.6563 53.4307
lradius 83.7516
lwrist -11.6103
lhand -27.4753 45.0599
lfingers 7.12502
lthumb -0.879194 75.0378
rfemur -0.802957 6.08037 30.8021
rtibia 16.2121
rfoot -11.1723 -12.85
rtoes 11.1698
lfemur -22.0859 4.46674 -8.13012
ltibia 48.3013
lfoot -2.95341 5.22515
ltoes -13.3273
